<?xml version="1.0" encoding="UTF-8"?>
<svg xmlns="http://www.w3.org/2000/svg" xmlns:xlink="http://www.w3.org/1999/xlink" width="375pt" height="374.999991pt" viewBox="0 0 375 374.999991" version="1.2">
<defs>
<clipPath id="clip1">
  <path d="M 58 46 L 310 46 L 310 277.5 L 58 277.5 Z M 58 46 "/>
</clipPath>
<clipPath id="clip2">
  <path d="M 45.917969 101 L 251 101 L 251 237 L 45.917969 237 Z M 45.917969 101 "/>
</clipPath>
<clipPath id="clip3">
  <path d="M 27.015625 28.742188 L 348.015625 28.742188 L 348.015625 349.742188 L 27.015625 349.742188 Z M 27.015625 28.742188 "/>
</clipPath>
</defs>
<g id="surface1">
<path style=" stroke:none;fill-rule:nonzero;fill:rgb(100%,99.609375%,77.648926%);fill-opacity:1;" d="M 310.910156 20.863281 C 310.269531 22.046875 309.632812 23.238281 308.984375 24.429688 C 309.5625 23.949219 310.292969 23.542969 311.289062 23.242188 C 312.136719 22.652344 311.429688 21.824219 310.910156 20.863281 "/>
<path style=" stroke:none;fill-rule:nonzero;fill:rgb(100%,99.609375%,77.648926%);fill-opacity:1;" d="M 307.1875 27.71875 C 307.070312 27.933594 306.949219 28.148438 306.839844 28.347656 C 306.863281 28.59375 306.894531 28.84375 306.945312 29.070312 C 307.007812 28.613281 307.089844 28.15625 307.1875 27.71875 "/>
<path style=" stroke:none;fill-rule:nonzero;fill:rgb(100%,99.609375%,77.648926%);fill-opacity:1;" d="M 305.230469 34.574219 C 305.980469 33.554688 306.351562 32.40625 306.582031 31.246094 C 305.855469 32.023438 305.339844 33.089844 305.230469 34.574219 "/>
<path style=" stroke:none;fill-rule:nonzero;fill:rgb(100%,99.609375%,77.648926%);fill-opacity:1;" d="M 308.585938 29.945312 C 307.808594 30.058594 307.09375 29.960938 306.9375 29.101562 C 306.9375 29.09375 306.945312 29.085938 306.9375 29.070312 C 306.832031 29.792969 306.738281 30.515625 306.582031 31.246094 C 307.140625 30.667969 307.820312 30.234375 308.585938 29.945312 "/>
<path style=" stroke:none;fill-rule:nonzero;fill:rgb(100%,99.609375%,77.648926%);fill-opacity:1;" d="M 308.585938 29.945312 C 309.34375 29.835938 310.167969 29.484375 310.59375 29.429688 C 309.898438 29.53125 309.222656 29.703125 308.585938 29.945312 "/>
<path style=" stroke:none;fill-rule:nonzero;fill:rgb(100%,99.609375%,77.648926%);fill-opacity:1;" d="M 322.011719 38.199219 C 322.148438 39.0625 318.214844 37.027344 318.503906 38.738281 C 318.210938 42.296875 318.785156 45.757812 317.457031 48.613281 C 317.769531 50.355469 312.316406 50.214844 312.5625 51.917969 C 312.171875 55.449219 313.582031 65.824219 315.648438 61.160156 C 317.089844 57.597656 318.101562 54.570312 319.050781 51.628906 C 319.917969 48.648438 320.714844 45.753906 321.804688 42.476562 C 322.554688 36.675781 322.894531 30.960938 323.832031 25.171875 C 324.320312 23.65625 325.253906 22.449219 326.101562 21.199219 C 324.722656 22.710938 323.238281 24.226562 321.710938 25.957031 C 319.363281 28.074219 323.042969 33.621094 322.011719 38.199219 "/>
<path style=" stroke:none;fill-rule:nonzero;fill:rgb(100%,99.609375%,77.648926%);fill-opacity:1;" d="M 325.3125 -5.410156 C 325.484375 -4.574219 325.847656 -2.890625 325.847656 -2.890625 C 321.652344 -1.234375 321.496094 2.273438 321.328125 5.808594 C 322.1875 5.652344 323.054688 5.492188 323.9375 5.332031 C 324.460938 3.492188 323.40625 2.804688 321.855469 3.96875 C 325.855469 1.492188 327.691406 -1.703125 328.753906 -5.308594 C 327.550781 -5.558594 326.292969 -6.132812 325.3125 -5.410156 "/>
<g clip-path="url(#clip1)" clip-rule="nonzero">
<path style=" stroke:none;fill-rule:nonzero;fill:rgb(100%,99.609375%,77.648926%);fill-opacity:1;" d="M 302.359375 49.820312 C 300.3125 54.054688 298.234375 58.125 296.136719 62.074219 C 295.070312 64.042969 294.015625 65.980469 292.96875 67.914062 C 291.828125 69.789062 290.703125 71.652344 289.582031 73.5 C 290.019531 74.496094 290.683594 75.382812 289.789062 75.917969 C 288.785156 76.136719 288.035156 76.5 287.425781 76.945312 C 286.75 78.015625 286.074219 79.078125 285.402344 80.140625 C 285.292969 80.570312 285.179688 81.019531 285.066406 81.46875 L 285.066406 81.515625 C 285.164062 82.375 285.867188 82.527344 286.648438 82.457031 C 287.292969 82.257812 287.996094 82.125 288.691406 82.078125 C 288.246094 82.109375 287.414062 82.390625 286.648438 82.457031 C 285.867188 82.707031 285.160156 83.078125 284.570312 83.632812 C 284.25 84.777344 283.8125 85.910156 282.988281 86.871094 C 283.199219 85.402344 283.777344 84.363281 284.570312 83.632812 C 284.765625 82.902344 284.910156 82.1875 285.066406 81.46875 C 285.046875 81.234375 285.035156 80.988281 285.007812 80.738281 C 283.445312 83.15625 281.878906 85.566406 280.3125 87.972656 C 280.09375 88.601562 279.886719 89.207031 279.742188 89.714844 C 279.199219 91.796875 278.648438 93.878906 276.136719 93.890625 C 275.84375 94.304688 275.535156 94.722656 275.234375 95.140625 C 275.398438 95.128906 275.546875 95.089844 275.730469 95.085938 C 275.492188 95.214844 275.273438 95.304688 275.070312 95.371094 C 273.808594 97.128906 272.53125 98.886719 271.257812 100.652344 C 271.257812 102.292969 271.410156 104.078125 271.207031 105.65625 C 271.207031 105.65625 269.441406 105.722656 268.570312 105.753906 C 269.210938 106.835938 269.40625 107.949219 269.21875 108.992188 C 270.945312 108.679688 272.742188 108.523438 274.027344 108.128906 C 276.675781 108.015625 271.902344 103.015625 276.367188 103.6875 C 271.902344 103.011719 276.679688 108.011719 274.027344 108.128906 C 272.742188 108.523438 270.945312 108.679688 269.21875 108.992188 C 268.828125 111.167969 266.660156 112.972656 263.695312 113.617188 C 263.539062 110.386719 266.3125 109.511719 269.21875 108.992188 C 269.40625 107.941406 269.210938 106.835938 268.570312 105.753906 C 269.441406 105.71875 271.207031 105.65625 271.207031 105.65625 C 271.414062 104.074219 271.257812 102.292969 271.257812 100.652344 C 268.726562 104.078125 266.324219 107.628906 263.574219 111.050781 C 259.121094 116.542969 255.101562 122.125 250.917969 127.511719 C 246.660156 132.839844 242.683594 138.289062 238.441406 143.570312 C 229.917969 154.078125 221.175781 164.585938 210.742188 174.488281 C 199.515625 185.296875 187.40625 194.191406 174.925781 201.472656 C 162.515625 208.734375 151.820312 216.597656 140.179688 222.863281 C 128.636719 229.058594 115.871094 233.640625 101.898438 232.28125 C 96.621094 231.851562 89.992188 233.257812 83.535156 234.414062 C 77.097656 235.621094 70.847656 236.5625 66.945312 236.671875 C 64.222656 238.464844 62.679688 240.808594 61.449219 243.539062 C 61.015625 244.898438 60.402344 246.316406 60.203125 247.789062 C 60.003906 249.273438 59.65625 250.734375 59.386719 252.152344 C 57.832031 257.792969 59.457031 263.105469 59.722656 263.648438 C 61.582031 267.929688 63.859375 270.53125 66.277344 272.175781 C 68.707031 273.78125 71.34375 274.507812 74.261719 274.804688 C 80.183594 275.4375 87.09375 275.027344 98.246094 277.5 C 90.695312 276.1875 92.9375 273.175781 98.523438 271.445312 C 104.128906 269.601562 113.214844 268.710938 121.300781 271.542969 C 133.253906 276.246094 145.1875 272.070312 155.632812 265.367188 C 156.960938 264.542969 158.289062 263.707031 159.597656 262.832031 C 160.863281 261.90625 162.125 260.980469 163.398438 260.046875 C 165.921875 258.191406 168.457031 256.328125 170.980469 254.464844 C 175.878906 250.636719 181.039062 247.289062 186.304688 244.523438 C 188.976562 243.175781 191.476562 241.414062 193.988281 239.464844 C 196.417969 237.425781 198.890625 235.226562 201.695312 233.113281 C 205.707031 230.800781 209.328125 228.125 212.855469 225.363281 C 216.386719 222.605469 219.828125 219.761719 222.921875 216.65625 C 226.074219 213.582031 229.179688 210.460938 232.121094 207.222656 C 234.96875 203.921875 237.757812 200.566406 240.519531 197.171875 C 243.347656 193.828125 245.859375 190.265625 248.476562 186.753906 C 251.042969 183.203125 253.773438 179.734375 256.292969 176.09375 C 261.296875 168.820312 266.769531 161.675781 272.183594 154.253906 C 274.960938 150.242188 276.773438 145.914062 278.132812 141.578125 C 279.410156 137.195312 280.332031 132.84375 281.578125 128.839844 C 282.863281 126.15625 284.820312 123.78125 286.78125 121.554688 C 288.691406 119.3125 290.542969 117.195312 291.785156 115.136719 C 295.566406 108.609375 297.714844 102.316406 298.953125 95.933594 C 296.347656 102.386719 294.628906 107.261719 291.285156 114.273438 C 288.878906 118.84375 288.253906 108.253906 288.898438 104.734375 C 288.777344 102.996094 294.195312 103.515625 294.078125 101.761719 C 295.730469 99.054688 295.390625 95.527344 295.917969 91.960938 C 295.753906 90.207031 299.542969 92.523438 299.460938 91.648438 C 300.820312 87.101562 297.527344 81.28125 300 79.300781 C 301.648438 77.667969 303.21875 76.230469 304.765625 74.832031 C 305.566406 73.851562 306.28125 72.839844 306.726562 71.59375 C 306.777344 70.707031 306.820312 69.773438 306.871094 68.855469 C 305.359375 68.824219 303.78125 68.273438 302.203125 67.699219 C 302.960938 66.742188 304.601562 65.679688 305.367188 64.710938 C 304.601562 65.679688 302.957031 66.742188 302.203125 67.699219 C 303.78125 68.273438 305.359375 68.824219 306.871094 68.855469 C 307.296875 62.28125 308.335938 55.054688 309.519531 48.5 C 309.398438 48.46875 309.253906 48.433594 309.125 48.402344 C 307.832031 51.945312 305.8125 55.042969 301.648438 57.285156 C 303.28125 56.230469 304.289062 56.96875 303.652344 58.792969 C 302.773438 58.894531 301.886719 59 301.015625 59.105469 C 301.414062 55.566406 301.785156 52.058594 306.074219 50.660156 C 306.074219 50.660156 305.828125 48.949219 305.703125 48.101562 C 306.730469 47.429688 307.960938 48.082031 309.125 48.40625 C 309.378906 47.714844 309.617188 47.007812 309.792969 46.273438 C 307.140625 46.722656 302.359375 49.820312 302.359375 49.820312 "/>
</g>
<path style=" stroke:none;fill-rule:nonzero;fill:rgb(100%,99.609375%,77.648926%);fill-opacity:1;" d="M 284.414062 83.640625 C 284.527344 83.125 284.746094 82.53125 284.964844 81.902344 C 283.632812 83.90625 282.296875 85.921875 280.957031 87.941406 C 283.449219 87.882812 283.933594 85.765625 284.414062 83.640625 "/>
<g clip-path="url(#clip2)" clip-rule="nonzero">
<path style=" stroke:none;fill-rule:nonzero;fill:rgb(89.019775%,0%,100%);fill-opacity:1;" d="M 243.355469 102.667969 C 241.601562 105.515625 239.8125 108.222656 237.996094 110.84375 C 236.203125 113.46875 234.355469 115.976562 232.339844 118.3125 C 232.777344 119.1875 233.398438 120.039062 232.605469 120.257812 C 231.695312 120.199219 231.011719 120.3125 230.476562 120.511719 C 229.886719 121.195312 229.304688 121.875 228.714844 122.550781 C 228.613281 122.863281 228.527344 123.1875 228.445312 123.527344 L 228.445312 123.558594 C 228.558594 124.261719 229.203125 124.542969 229.910156 124.675781 C 230.492188 124.664062 231.125 124.726562 231.765625 124.84375 C 231.359375 124.769531 230.605469 124.800781 229.910156 124.675781 C 229.210938 124.6875 228.578125 124.808594 228.050781 125.105469 C 227.792969 125.933594 227.425781 126.726562 226.699219 127.289062 C 226.855469 126.183594 227.351562 125.496094 228.050781 125.105469 C 228.214844 124.582031 228.320312 124.050781 228.445312 123.527344 C 228.421875 123.332031 228.402344 123.136719 228.378906 122.933594 C 227.011719 124.464844 225.652344 125.988281 224.292969 127.511719 C 224.113281 127.964844 223.929688 128.382812 223.835938 128.769531 C 223.398438 130.277344 222.941406 131.796875 220.679688 131.195312 L 219.898438 131.957031 C 220.042969 131.984375 220.179688 132.007812 220.34375 132.039062 C 220.136719 132.082031 219.9375 132.101562 219.753906 132.101562 C 218.660156 133.175781 217.5625 134.257812 216.449219 135.347656 C 216.484375 136.644531 216.660156 138.109375 216.503906 139.320312 C 216.503906 139.320312 214.933594 138.921875 214.148438 138.726562 C 214.746094 139.753906 214.9375 140.691406 214.789062 141.484375 C 216.324219 141.671875 217.933594 142.007812 219.078125 142.023438 C 221.457031 142.589844 217.082031 137.394531 221.101562 139.046875 C 217.082031 137.390625 221.457031 142.589844 219.078125 142.023438 C 217.933594 142.007812 216.324219 141.671875 214.789062 141.484375 C 214.480469 143.121094 212.578125 144.015625 209.953125 143.746094 C 209.761719 141.113281 212.207031 141.152344 214.789062 141.484375 C 214.9375 140.691406 214.746094 139.753906 214.148438 138.726562 C 214.933594 138.921875 216.503906 139.320312 216.503906 139.320312 C 216.660156 138.109375 216.484375 136.644531 216.449219 135.347656 C 214.257812 137.425781 212.183594 139.640625 209.804688 141.660156 C 205.945312 144.871094 202.507812 148.304688 198.890625 151.449219 C 197.097656 153.035156 195.308594 154.609375 193.53125 156.1875 C 191.769531 157.78125 190.035156 159.398438 188.164062 160.847656 C 184.460938 163.792969 180.949219 167.007812 176.941406 169.65625 C 174.976562 171.023438 172.992188 172.398438 170.988281 173.792969 C 168.914062 175.070312 166.761719 176.261719 164.59375 177.480469 C 155.042969 182.445312 145.238281 185.851562 135.476562 186.863281 C 125.839844 187.941406 117.640625 190.296875 109.070312 190.832031 C 100.636719 191.363281 91.734375 189.851562 84.566406 183.046875 C 81.839844 180.527344 77.761719 179.300781 73.707031 177.988281 C 69.65625 176.769531 65.558594 175.65625 63.121094 174.625 C 60.714844 175.4375 58.539062 177.113281 56.589844 179.230469 C 54.574219 181.300781 53.03125 184 51.292969 186.320312 C 47.730469 190.921875 46.355469 196.023438 46.300781 196.601562 C 44.964844 205.242188 47.300781 208.546875 50.691406 211.109375 C 54.222656 213.707031 58.738281 215.742188 64.847656 222.417969 C 60.550781 218.289062 63.269531 216.480469 67.519531 217.074219 C 71.820312 217.71875 77.902344 220.480469 82.179688 226.582031 C 88.351562 235.84375 98.355469 237.296875 108.019531 235.757812 C 117.816406 234.195312 127.140625 230.167969 136.558594 229.621094 C 138.988281 229.589844 141.210938 228.757812 143.589844 227.96875 C 145.925781 227.105469 148.425781 226.261719 150.96875 225.28125 C 154.472656 224.53125 158.019531 223.699219 161.300781 222.476562 C 164.554688 221.210938 167.738281 219.792969 170.84375 218.261719 C 176.804688 214.90625 182.546875 211.179688 187.65625 206.847656 C 193.027344 202.730469 197.636719 197.945312 202.679688 193.453125 C 205.039062 191.082031 207.417969 188.714844 209.890625 186.394531 C 211.136719 185.246094 212.398438 184.09375 213.660156 182.925781 C 214.863281 181.734375 216.097656 180.550781 217.367188 179.386719 C 219.910156 176.769531 221.570312 173.601562 222.871094 170.367188 C 224.050781 167.070312 224.890625 163.710938 226.011719 160.738281 C 227.164062 158.855469 228.910156 157.40625 230.675781 156.078125 C 232.378906 154.71875 234.042969 153.453125 235.144531 152.078125 C 238.515625 147.691406 240.425781 143.097656 241.421875 138.257812 C 239.183594 142.835938 237.644531 146.367188 234.6875 151.246094 C 232.554688 154.375 231.910156 145.628906 232.421875 142.964844 C 232.289062 141.535156 237.210938 143.246094 237.085938 141.804688 C 238.550781 140.007812 238.15625 137.089844 238.578125 134.371094 C 238.394531 132.9375 241.902344 135.660156 241.808594 134.945312 C 242.972656 131.621094 239.824219 126.257812 242.046875 125.25 C 243.511719 124.324219 244.941406 123.542969 246.3125 122.761719 C 247 122.15625 247.652344 121.523438 248.019531 120.636719 C 248.046875 119.945312 248.0625 119.230469 248.089844 118.511719 C 246.699219 118.164062 245.226562 117.382812 243.757812 116.582031 C 244.425781 116 245.910156 115.523438 246.585938 114.929688 C 245.910156 115.523438 244.425781 116 243.757812 116.582031 C 245.226562 117.382812 246.699219 118.164062 248.089844 118.511719 C 248.308594 113.429688 249.058594 108.011719 249.957031 103.15625 C 249.84375 103.105469 249.710938 103.046875 249.585938 102.996094 C 248.503906 105.472656 246.71875 107.46875 242.9375 108.3125 C 244.414062 107.84375 245.371094 108.636719 244.832031 109.925781 C 244.027344 109.8125 243.210938 109.699219 242.410156 109.59375 C 242.671875 106.917969 242.898438 104.28125 246.832031 104.105469 C 246.832031 104.105469 246.542969 102.730469 246.40625 102.042969 C 247.332031 101.734375 248.496094 102.496094 249.585938 102.996094 C 249.8125 102.523438 249.96875 101.992188 250.117188 101.464844 C 248.910156 101.367188 247.21875 101.679688 245.824219 101.992188 C 244.433594 102.324219 243.355469 102.667969 243.355469 102.667969 "/>
</g>
<path style=" stroke:none;fill-rule:nonzero;fill:rgb(89.019775%,0%,100%);fill-opacity:1;" d="M 227.914062 125.082031 C 228.007812 124.699219 228.183594 124.28125 228.371094 123.839844 C 227.210938 125.105469 226.046875 126.375 224.882812 127.652344 C 227.136719 128.199219 227.53125 126.632812 227.914062 125.082031 "/>
<path style=" stroke:none;fill-rule:nonzero;fill:rgb(89.019775%,0%,100%);fill-opacity:1;" d="M 250.292969 82.121094 C 249.742188 82.902344 249.183594 83.683594 248.628906 84.472656 C 249.148438 84.214844 249.8125 84.050781 250.738281 84.019531 C 251.503906 83.738281 250.8125 82.957031 250.292969 82.121094 "/>
<path style=" stroke:none;fill-rule:nonzero;fill:rgb(89.019775%,0%,100%);fill-opacity:1;" d="M 247.070312 86.621094 C 246.96875 86.757812 246.863281 86.902344 246.769531 87.035156 C 246.800781 87.234375 246.835938 87.425781 246.894531 87.609375 C 246.929688 87.269531 246.992188 86.941406 247.070312 86.621094 "/>
<path style=" stroke:none;fill-rule:nonzero;fill:rgb(89.019775%,0%,100%);fill-opacity:1;" d="M 245.484375 91.484375 C 246.148438 90.851562 246.453125 90.046875 246.628906 89.207031 C 245.972656 89.652344 245.539062 90.367188 245.484375 91.484375 "/>
<path style=" stroke:none;fill-rule:nonzero;fill:rgb(89.019775%,0%,100%);fill-opacity:1;" d="M 248.453125 88.621094 C 247.730469 88.546875 247.0625 88.320312 246.886719 87.632812 L 246.894531 87.609375 C 246.8125 88.140625 246.75 88.675781 246.628906 89.207031 C 247.125 88.878906 247.75 88.691406 248.453125 88.621094 "/>
<path style=" stroke:none;fill-rule:nonzero;fill:rgb(89.019775%,0%,100%);fill-opacity:1;" d="M 248.453125 88.621094 C 249.148438 88.691406 249.910156 88.582031 250.304688 88.632812 C 249.660156 88.566406 249.042969 88.566406 248.453125 88.621094 "/>
<path style=" stroke:none;fill-rule:nonzero;fill:rgb(89.019775%,0%,100%);fill-opacity:1;" d="M 261.25 97.714844 C 261.410156 98.421875 257.671875 96.039062 257.996094 97.429688 C 257.832031 100.128906 258.472656 102.941406 257.3125 104.886719 C 257.644531 106.3125 252.617188 105.09375 252.878906 106.453125 C 252.628906 109.117188 254.214844 117.574219 256 114.355469 C 257.230469 111.847656 258.121094 109.699219 258.886719 107.574219 C 259.605469 105.421875 260.269531 103.328125 261.183594 101.003906 C 261.714844 96.648438 261.851562 92.285156 262.542969 87.996094 C 262.953125 86.925781 263.757812 86.164062 264.527344 85.371094 C 263.273438 86.265625 261.964844 87.164062 260.574219 88.183594 C 258.453125 89.351562 262.078125 94.367188 261.25 97.714844 "/>
<path style=" stroke:none;fill-rule:nonzero;fill:rgb(89.019775%,0%,100%);fill-opacity:1;" d="M 262.859375 64.867188 C 263.0625 65.542969 263.457031 66.886719 263.457031 66.886719 C 259.566406 67.363281 259.554688 69.992188 259.515625 72.65625 C 260.324219 72.699219 261.140625 72.75 261.960938 72.792969 C 262.386719 71.488281 261.371094 70.761719 259.941406 71.351562 C 263.625 70.230469 265.242188 68.132812 266.117188 65.585938 C 264.972656 65.179688 263.761719 64.503906 262.859375 64.867188 "/>
<path style=" stroke:none;fill-rule:nonzero;fill:rgb(89.019775%,0%,100%);fill-opacity:1;" d="M 266.542969 64.050781 C 266.417969 64.574219 266.28125 65.09375 266.117188 65.59375 C 266.234375 65.636719 266.355469 65.675781 266.480469 65.71875 C 266.542969 65.15625 266.605469 64.597656 266.660156 64.050781 L 266.542969 64.050781 "/>
<g clip-path="url(#clip3)" clip-rule="nonzero">
<path style=" stroke:none;fill-rule:nonzero;fill:rgb(0%,0%,0%);fill-opacity:1;" d="M 187.652344 28.859375 C 99.003906 28.859375 27.132812 100.722656 27.132812 189.382812 C 27.132812 278.03125 99.003906 349.90625 187.652344 349.90625 C 276.308594 349.90625 348.179688 278.03125 348.179688 189.382812 C 348.179688 100.722656 276.308594 28.859375 187.652344 28.859375 Z M 187.652344 323.292969 C 113.699219 323.292969 53.746094 263.332031 53.746094 189.378906 C 53.746094 115.414062 113.699219 55.464844 187.652344 55.464844 C 261.613281 55.464844 321.566406 115.414062 321.566406 189.378906 C 321.5625 263.332031 261.609375 323.292969 187.652344 323.292969 Z M 187.652344 323.292969 "/>
</g>
<path style=" stroke:none;fill-rule:nonzero;fill:rgb(0%,0%,0%);fill-opacity:1;" d="M 285.199219 143.878906 C 275.917969 124.226562 256.820312 112.023438 235.347656 112.023438 C 228.441406 112.023438 221.617188 113.3125 215.066406 115.855469 C 209.691406 117.949219 206.699219 123.457031 207.789062 129.253906 C 208.792969 134.597656 212.988281 138.328125 217.988281 138.328125 C 219.347656 138.328125 220.738281 138.058594 222.109375 137.523438 C 226.554688 135.796875 231.050781 134.917969 235.476562 134.917969 C 248.199219 134.917969 259.269531 142.277344 265.085938 154.601562 C 266.914062 158.464844 270.414062 160.773438 274.457031 160.777344 C 278.386719 160.777344 282.347656 158.527344 284.546875 155.0625 C 286.707031 151.65625 286.945312 147.578125 285.199219 143.878906 Z M 285.199219 143.878906 "/>
<path style=" stroke:none;fill-rule:nonzero;fill:rgb(0%,0%,0%);fill-opacity:1;" d="M 161.636719 138.273438 C 166.640625 138.273438 170.835938 134.542969 171.839844 129.199219 C 172.925781 123.402344 169.933594 117.890625 164.558594 115.800781 C 158.011719 113.253906 151.1875 111.964844 144.277344 111.964844 C 122.808594 111.964844 103.707031 124.175781 94.429688 143.824219 C 92.683594 147.523438 92.917969 151.601562 95.074219 155.003906 C 97.277344 158.476562 101.238281 160.722656 105.164062 160.722656 C 109.207031 160.722656 112.714844 158.414062 114.535156 154.550781 C 120.355469 142.226562 131.425781 134.867188 144.144531 134.867188 C 148.570312 134.867188 153.070312 135.742188 157.515625 137.476562 C 158.886719 138.003906 160.273438 138.273438 161.636719 138.273438 Z M 161.636719 138.273438 "/>
<path style=" stroke:none;fill-rule:nonzero;fill:rgb(0%,0%,0%);fill-opacity:1;" d="M 187.65625 169.734375 C 167.265625 169.734375 151.289062 193.5 151.289062 223.835938 C 151.289062 254.171875 167.265625 277.933594 187.65625 277.933594 C 208.046875 277.933594 224.023438 254.167969 224.023438 223.832031 C 224.023438 193.496094 208.046875 169.734375 187.65625 169.734375 Z M 187.65625 169.734375 "/>
</g>
</svg>
